<svg xmlns="http://www.w3.org/2000/svg" viewBox="0 0 326.38 304.09"><defs><style>.cls-1{fill:#3b4546;}.cls-2{fill:#c67d53;}.cls-3{fill:#3c4447;}</style></defs><g id="Layer_2" data-name="Layer 2"><g id="Layer_1-2" data-name="Layer 1"><path class="cls-1" d="M196.12,47.8c0,9.84,0,19.47,0,29.09,0,4.41-.07,8.82-.06,13.24a1.79,1.79,0,0,1-1.39,2c-2.17.67-4.31,1.43-6.63,2.21V39.62h39.12c0,5.94.06,11.83,0,17.71-.08,6.08.25,12.22-.53,18.21-1.38,10.51-7,18.55-16,24.24a64.62,64.62,0,0,1-24.49,9c-8.94,1.45-17.94,2.57-26.81,4.34-9.73,2-19.23,4.85-27.74,10.17a51.16,51.16,0,0,0-21.7,27.08,31.35,31.35,0,0,0-1.64,5.16c.8-1.16,1.61-2.3,2.38-3.47a53.34,53.34,0,0,1,18-16.43c10.74-6.31,22.46-9.62,34.71-11.29,7.27-1,14.57-1.77,21.83-2.83,9.18-1.35,18.34-2.9,27-6.51a51.91,51.91,0,0,0,18.41-12.64,37.49,37.49,0,0,0,8.81-15.93c2.37-8.83,1.26-17.35-2-25.72-.37-1-.92-1.84-1.21-2.84a35.38,35.38,0,0,1,10,19.63,33.3,33.3,0,0,1-.56,14.15,38.25,38.25,0,0,1-9.34,16.55c-6.9,7.57-15.52,12.46-25,15.8a121.2,121.2,0,0,1-26.32,5.64c-6.77.78-13.6,1.25-20.29,2.46-7.57,1.37-15.29,2.42-22.34,5.87a10.37,10.37,0,0,1-1.16.31c-2.93,1-3.72,2.06-3.72,5.2q0,20.75,0,41.47c0,.23,0,.46-.07.83H98.19c0-4.22,0-8.39,0-12.56-.06-10.66,1.4-21.08,6-30.8,6.59-14.07,17.18-24.13,31.41-30.38a116.61,116.61,0,0,1,30.21-8.36c7-1,14-1.82,20.89-3.17,7.86-1.54,15.4-4.07,21.79-9.22A26.51,26.51,0,0,0,218.89,70c.06-6.94,0-13.88-.09-20.82,0-.46-.65-1.3-1-1.3C210.64,47.78,203.48,47.8,196.12,47.8Zm-66.84,97.5c-7.85,2.91-21.75,24-21.47,32.46,6.85,0,13.71,0,20.57-.06.34,0,1-.87,1-1.34,0-6,0-11.9,0-17.85C129.27,154.17,129.28,149.83,129.28,145.3Z"/><path class="cls-1" d="M128.14,18a5.45,5.45,0,0,0-.93.61c-7,8.19-10.83,17.43-8.58,28.35,1.19,5.76,3,11.39,4.37,17.12,1.54,6.46.89,12.74-3,18.27a12.2,12.2,0,0,1-12.26,5.38c-4.85-.66-8-3.7-9.79-8.16-.21-.52-.4-1-.78-2-.93,1.66-1.66,3-2.36,4.26A63.22,63.22,0,0,0,87.69,102a47.71,47.71,0,0,0,.19,16.77A42.34,42.34,0,0,0,98.1,139.12a1.75,1.75,0,0,1,.46,1.42c-.88,2.58-1.88,5.13-3,8.1-2.46-3-5-5.67-7-8.63-7.86-11.13-11.17-23.49-9.42-37.07a60.47,60.47,0,0,1,4.44-16.35c3.54-8.18,8.21-15.69,13-23.13,1.52-2.34,2.92-4.76,4.47-7.32.18,2.67.25,5.14.54,7.58.52,4.52,1.5,8.94,4.06,12.82a9.92,9.92,0,0,0,1.83,2c2.34,2.08,4.24,1.22,5.94-1.35,2.47-3.72,2.52-7.84,1.42-12C113,58,110.48,50.88,110,43.38a37.47,37.47,0,0,1,2.92-17.1c3.35-8.07,8.88-14.4,15.67-19.67,3-2.31,6.21-4.25,9.7-6.61a11,11,0,0,1-.2,1.24,34.31,34.31,0,0,0,2.76,30.12c2.9,5,6.56,9.51,9.92,14.21,6.34,8.87,11.37,18.32,12.58,29.35a46,46,0,0,1-3,22.43,2.68,2.68,0,0,1-1.67,1.34c-2.66.58-5.36,1-7.82,1.43,1.06-3.19,2.35-6.52,3.27-10a38.68,38.68,0,0,0-3.95-29.89c-3.46-6.1-7.84-11.69-11.93-17.42a57.65,57.65,0,0,1-9.66-20.7A38,38,0,0,1,128.14,18Z"/><path class="cls-1" d="M196.1,133.7v9.9c0,8.94,0,17.87,0,26.81,0,2-.1,4-.2,6,0,.78,0,1.39,1,1.39h21.9V171.7c0-13.93,0-27.87-.07-41.8,0-1.78.45-2.61,2.07-3.27,2.1-.85,4-2,6.23-3.19v62.32H188c0-.35-.1-.79-.1-1.22q0-23.74,0-47.5c0-1.08.23-1.62,1.44-1.82C191.49,134.87,193.64,134.27,196.1,133.7Z"/><path class="cls-2" d="M100,137.31s-14.72-17.09-1.77-44.73c0,0,12.3,16.24,29.08-4.63,7-10.34,5.69-23.16,3.65-29,0,0,20.19,19.2,12.78,40.41C143.7,99.38,109.13,115.89,100,137.31Z"/><path class="cls-3" d="M0,203.79H15.9a50,50,0,0,1,7,.36,10.94,10.94,0,0,1,4.15,1.53,9.85,9.85,0,0,1,3.06,3.1,8,8,0,0,1,1.22,4.34,8.14,8.14,0,0,1-1.51,4.77,9.19,9.19,0,0,1-4.08,3.27,10.49,10.49,0,0,1,5.59,3.36,8.54,8.54,0,0,1,1.95,5.59A10.4,10.4,0,0,1,32.06,235a10,10,0,0,1-3.45,3.82,11.93,11.93,0,0,1-5.38,1.76c-1.34.13-4.57.22-9.69.25H0ZM8,210v8.57H13.3c3.13,0,5.07-.05,5.83-.13a5.43,5.43,0,0,0,3.24-1.33,3.74,3.74,0,0,0,1.18-2.89,3.9,3.9,0,0,0-1-2.79,4.74,4.74,0,0,0-3-1.31c-.8-.08-3.08-.12-6.87-.12ZM8,224.7v9.91h7.44a39.19,39.19,0,0,0,5.51-.23,5.09,5.09,0,0,0,2.91-1.48A4.36,4.36,0,0,0,25,229.75a4.6,4.6,0,0,0-.87-2.83,4.93,4.93,0,0,0-2.51-1.69,28.89,28.89,0,0,0-7.12-.53Z"/><path class="cls-3" d="M40.32,240.85V204.09h8v30.52h20v6.24Z"/><path class="cls-3" d="M109.92,240.85h-8.73l-3.48-8.42H81.81l-3.28,8.42H70L85.5,203.79H94ZM95.14,226.19l-5.49-13.76-5.37,13.76Z"/><path class="cls-3" d="M110.74,240.85V234.1l20.89-24H113.1v-6.27h29.12v5.81l-21.79,25h22.63v6.24Z"/><path class="cls-3" d="M148.13,240.85V203.79h29.5v6.27H156.16v8.21h20v6.25h-20v10.09h22.23v6.24Z"/><path class="cls-3" d="M185.61,240.85V203.79h5.26V219h20.68V203.79h5.26v37.06h-5.26V223.38H190.87v17.47Z"/><path class="cls-3" d="M221.21,240.85l15.27-37.06h5.68l16.28,37.06h-6l-4.64-11.22H231.17l-4.37,11.22Zm11.48-15.22h13.48L242,215.37q-1.91-4.68-2.82-7.69a44.21,44.21,0,0,1-2.15,7.08Z"/><path class="cls-3" d="M259.47,240.85V236.3l20.38-23.74c1.44-1.68,2.82-3.15,4.12-4.4h-22.2v-4.37h28.5v4.37l-22.34,25.71-2.41,2.61h25.4v4.37Z"/><path class="cls-3" d="M296.7,240.85V203.79h28.76v4.37H302v11.35h22v4.35H302v12.62h24.42v4.37Z"/><path class="cls-3" d="M52.44,275V254.2h9.13a13.06,13.06,0,0,1,4.47.63,5.58,5.58,0,0,1,2.64,1.94,4.6,4.6,0,0,1,.95,2.74,4.22,4.22,0,0,1-.84,2.5,5.84,5.84,0,0,1-2.56,1.9,6.57,6.57,0,0,1,3.39,1.88,4.6,4.6,0,0,1,1.19,3.15,5.62,5.62,0,0,1-2.51,4.64,7.82,7.82,0,0,1-2.66,1,19,19,0,0,1-3.92.35Zm3.22-12h5.26a13.71,13.71,0,0,0,3.07-.24,3.53,3.53,0,0,0,1.85-1,2.73,2.73,0,0,0,.62-1.82,3,3,0,0,0-.58-1.82,2.93,2.93,0,0,0-1.66-1.07,15.78,15.78,0,0,0-3.7-.29H55.66Zm0,9.59h6.06a17.49,17.49,0,0,0,2.19-.1,5.91,5.91,0,0,0,1.86-.57A3.27,3.27,0,0,0,67,270.69a3.22,3.22,0,0,0,.48-1.75,3.11,3.11,0,0,0-.69-2,3.71,3.71,0,0,0-1.94-1.2,14,14,0,0,0-3.56-.35H55.66Z"/><path class="cls-3" d="M74.73,280.75l-.33-2.4a7.2,7.2,0,0,0,1.7.23,3.76,3.76,0,0,0,1.6-.28,2.62,2.62,0,0,0,1-.79,11.75,11.75,0,0,0,.91-1.9c.06-.14.14-.35.27-.63l-6.69-15.06h3.22l3.67,8.71a33.88,33.88,0,0,1,1.27,3.48,34.11,34.11,0,0,1,1.23-3.43l3.77-8.76h3l-6.71,15.29a29.34,29.34,0,0,1-1.67,3.41,5.39,5.39,0,0,1-1.83,1.85,4.92,4.92,0,0,1-2.46.59A6.82,6.82,0,0,1,74.73,280.75Z"/><path class="cls-3" d="M117.1,267.32l4.77,1.29a9.05,9.05,0,0,1-3.65,5.05,11.67,11.67,0,0,1-6.46,1.65,11.44,11.44,0,0,1-8-2.82,9.91,9.91,0,0,1-3.12-7.73c0-3.45,1-6.14,3.14-8.05a11.76,11.76,0,0,1,8.25-2.87,11.14,11.14,0,0,1,7.25,2.26,7.89,7.89,0,0,1,2.49,3.82l-4.86,1a4.35,4.35,0,0,0-1.8-2.55,5.82,5.82,0,0,0-3.33-.93,6,6,0,0,0-4.39,1.65c-1.12,1.11-1.69,2.9-1.69,5.37,0,2.62.56,4.49,1.66,5.61a5.85,5.85,0,0,0,4.32,1.67,5.5,5.5,0,0,0,3.37-1.06A6,6,0,0,0,117.1,267.32Z"/><path class="cls-3" d="M125.09,264.7a11.51,11.51,0,0,1,1.11-5.32,9.75,9.75,0,0,1,2.27-2.85,9.43,9.43,0,0,1,3.14-1.86,15.33,15.33,0,0,1,5.24-.83,12.53,12.53,0,0,1,8.61,2.85,11.29,11.29,0,0,1,0,15.78,12.47,12.47,0,0,1-8.57,2.84c-3.62,0-6.49-.94-8.63-2.82A9.84,9.84,0,0,1,125.09,264.7Zm5.06-.14a7.06,7.06,0,0,0,1.91,5.35,7.35,7.35,0,0,0,9.67,0,7.18,7.18,0,0,0,1.88-5.41,7.07,7.07,0,0,0-1.83-5.33,7.66,7.66,0,0,0-9.77,0A7.09,7.09,0,0,0,130.15,264.56Z"/><path class="cls-3" d="M152.54,275V254.2h10.34a20.32,20.32,0,0,1,5.67.56,5.44,5.44,0,0,1,2.83,2,5.31,5.31,0,0,1,1.06,3.27,5.06,5.06,0,0,1-1.61,3.86,8.33,8.33,0,0,1-4.81,1.91,11.23,11.23,0,0,1,2.63,1.75,24.22,24.22,0,0,1,2.8,3.37l3,4h-5.88L165,270.44a30.92,30.92,0,0,0-2.59-3.05,3.9,3.9,0,0,0-1.48-.87,9.68,9.68,0,0,0-2.47-.23h-1V275Zm4.91-12h3.64a21.63,21.63,0,0,0,4.41-.26,2.61,2.61,0,0,0,1.38-.88,2.4,2.4,0,0,0,.5-1.55,2.27,2.27,0,0,0-.66-1.7,3.14,3.14,0,0,0-1.85-.81c-.39,0-1.59-.07-3.58-.07h-3.84Z"/><path class="cls-3" d="M182.67,275,174,254.2h5.33l6.16,15.36,5.95-15.36h5.22L187.91,275Z"/><path class="cls-3" d="M218.55,275h-5.34l-2.13-4.72h-9.72l-2,4.72h-5.21l9.47-20.76h5.2Zm-9-8.22-3.36-7.7-3.28,7.7Z"/><path class="cls-3" d="M221,275V254.2h4.91V275Z"/><path class="cls-3" d="M230.65,275V254.2h4.78l10,13.86V254.2H250V275H245l-9.81-13.54V275Z"/><path class="cls-3" d="M255.15,275V254.2h18v3.51H260.06v4.6h12.22v3.5H260.06v5.65h13.6V275Z"/><path class="cls-3" d="M52.92,301.77V290h5a7,7,0,0,1,2.47.36,3.11,3.11,0,0,1,1.46,1.09,2.68,2.68,0,0,1,.52,1.56,2.4,2.4,0,0,1-.46,1.41,3.26,3.26,0,0,1-1.42,1.08,3.55,3.55,0,0,1,1.88,1.07,2.59,2.59,0,0,1,.65,1.78A3.2,3.2,0,0,1,61.68,301a4.51,4.51,0,0,1-1.47.58,10.21,10.21,0,0,1-2.17.2ZM54.7,295h2.9a7.46,7.46,0,0,0,1.7-.14,2,2,0,0,0,1-.58,1.56,1.56,0,0,0,.34-1,1.68,1.68,0,0,0-.32-1,1.6,1.6,0,0,0-.91-.61,8.8,8.8,0,0,0-2-.16H54.7Zm0,5.43H58a8.16,8.16,0,0,0,1.21-.06,3.12,3.12,0,0,0,1-.32,1.8,1.8,0,0,0,.94-1.64,1.85,1.85,0,0,0-.38-1.15,2.09,2.09,0,0,0-1.07-.68,7.65,7.65,0,0,0-2-.19H54.7Z"/><path class="cls-3" d="M64.69,297.51a4.13,4.13,0,0,1,1.5-3.51,5,5,0,0,1,3.06-.94,4.69,4.69,0,0,1,3.28,1.15,4,4,0,0,1,1.28,3.18,5,5,0,0,1-.57,2.58,3.74,3.74,0,0,1-1.64,1.47,5.43,5.43,0,0,1-2.35.52,4.69,4.69,0,0,1-3.3-1.15A4.24,4.24,0,0,1,64.69,297.51Zm1.69,0A3.31,3.31,0,0,0,67.2,300a2.79,2.79,0,0,0,2,.81,2.74,2.74,0,0,0,2-.82,3.35,3.35,0,0,0,.82-2.49,3.25,3.25,0,0,0-.82-2.4,3,3,0,0,0-4.09,0A3.3,3.3,0,0,0,66.38,297.51Z"/><path class="cls-3" d="M75.72,301.77v-8.52h1.49v1.29a3.55,3.55,0,0,1,1.05-1.19,1.93,1.93,0,0,1,1-.29,3.54,3.54,0,0,1,1.7.46l-.57,1.34a2.56,2.56,0,0,0-1.21-.31,1.72,1.72,0,0,0-1,.28,1.55,1.55,0,0,0-.61.79,4.87,4.87,0,0,0-.28,1.69v4.46Z"/><path class="cls-3" d="M82,301.77v-8.52h1.49v1.21a3.63,3.63,0,0,1,3.09-1.4,4.67,4.67,0,0,1,1.62.27,2.34,2.34,0,0,1,1.62,1.8,7.27,7.27,0,0,1,.09,1.4v5.24H88.25v-5.19a3.38,3.38,0,0,0-.19-1.31,1.44,1.44,0,0,0-.68-.7,2.38,2.38,0,0,0-1.15-.26,2.89,2.89,0,0,0-1.82.58,2.66,2.66,0,0,0-.77,2.22v4.66Z"/><path class="cls-3" d="M97.65,291.67V290H99.3v1.66Zm0,10.1v-8.52H99.3v8.52Z"/><path class="cls-3" d="M101.81,301.77v-8.52h1.49v1.21a3.65,3.65,0,0,1,3.1-1.4,4.75,4.75,0,0,1,1.62.27,2.55,2.55,0,0,1,1.1.73,2.66,2.66,0,0,1,.51,1.07,7.27,7.27,0,0,1,.09,1.4v5.24h-1.65v-5.19a3.38,3.38,0,0,0-.19-1.31,1.4,1.4,0,0,0-.68-.7,2.35,2.35,0,0,0-1.15-.26,2.91,2.91,0,0,0-1.82.58,2.66,2.66,0,0,0-.77,2.22v4.66Z"/><path class="cls-3" d="M117.86,301.77v-7.4h-1.45v-1.12h1.45v-.91a3.38,3.38,0,0,1,.18-1.27,1.89,1.89,0,0,1,.84-.91,3.28,3.28,0,0,1,1.68-.35,9.88,9.88,0,0,1,1.54.14l-.25,1.26a6.79,6.79,0,0,0-1-.08,1.55,1.55,0,0,0-1.06.28,1.39,1.39,0,0,0-.32,1v.79h1.9v1.12h-1.9v7.4Z"/><path class="cls-3" d="M122.69,291.67V290h1.65v1.66Zm0,10.1v-8.52h1.65v8.52Z"/><path class="cls-3" d="M126.84,301.77v-8.52h1.48v1.29a3.55,3.55,0,0,1,1.05-1.19,1.94,1.94,0,0,1,1.06-.29,3.53,3.53,0,0,1,1.69.46l-.56,1.34a2.62,2.62,0,0,0-1.21-.31,1.75,1.75,0,0,0-1,.28,1.6,1.6,0,0,0-.61.79,5.12,5.12,0,0,0-.27,1.69v4.46Z"/><path class="cls-3" d="M139.77,299l1.7.19a3.66,3.66,0,0,1-1.49,2,5,5,0,0,1-2.79.72,4.82,4.82,0,0,1-3.38-1.15,4.16,4.16,0,0,1-1.25-3.23,4.37,4.37,0,0,1,1.26-3.34,4.6,4.6,0,0,1,3.28-1.18,4.44,4.44,0,0,1,3.19,1.16,4.24,4.24,0,0,1,1.24,3.27c0,.09,0,.21,0,.39h-7.26a3,3,0,0,0,.91,2.14,2.88,2.88,0,0,0,2,.75,2.76,2.76,0,0,0,1.55-.42A2.73,2.73,0,0,0,139.77,299Zm-5.42-2.33h5.44a2.62,2.62,0,0,0-.63-1.61,2.65,2.65,0,0,0-2-.84,2.8,2.8,0,0,0-1.91.67A2.49,2.49,0,0,0,134.35,296.69Z"/><path class="cls-3" d="M144,301.77v-1.65h1.87v1.65a2.65,2.65,0,0,1-.36,1.46,2.37,2.37,0,0,1-1.17.86l-.46-.62a1.54,1.54,0,0,0,.78-.59,2.32,2.32,0,0,0,.27-1.11Z"/><path class="cls-3" d="M154.13,301.77V290h2.68l3.18,8.32.64,1.74c.15-.43.39-1.05.71-1.88l3.22-8.18H167v11.76h-1.71v-9.84l-3.91,9.84h-1.6l-3.89-10v10Z"/><path class="cls-3" d="M176,300.71a6.35,6.35,0,0,1-1.76,1,6,6,0,0,1-1.82.28,3.88,3.88,0,0,1-2.47-.69,2.15,2.15,0,0,1-.86-1.75,2.05,2.05,0,0,1,.33-1.14,2.41,2.41,0,0,1,.85-.83,4.36,4.36,0,0,1,1.19-.48c.32-.07.81-.14,1.46-.21a17.3,17.3,0,0,0,2.94-.5c0-.2,0-.32,0-.38a1.47,1.47,0,0,0-.46-1.24,3,3,0,0,0-1.88-.49,3.22,3.22,0,0,0-1.72.36,2.17,2.17,0,0,0-.82,1.26l-1.62-.19a3.34,3.34,0,0,1,.73-1.47,3.23,3.23,0,0,1,1.46-.85,7.34,7.34,0,0,1,2.21-.3,6.64,6.64,0,0,1,2,.25,2.76,2.76,0,0,1,1.15.65,2.24,2.24,0,0,1,.51,1,7.7,7.7,0,0,1,.08,1.33v1.93a17.51,17.51,0,0,0,.11,2.54,3.13,3.13,0,0,0,.41,1h-1.72A2.81,2.81,0,0,1,176,300.71Zm-.14-3.22a13.57,13.57,0,0,1-2.69.55,7.2,7.2,0,0,0-1.44.28,1.46,1.46,0,0,0-.65.47,1.17,1.17,0,0,0-.23.69,1.19,1.19,0,0,0,.5,1,2.33,2.33,0,0,0,1.46.39,3.73,3.73,0,0,0,1.7-.37,2.37,2.37,0,0,0,1.09-1,3.16,3.16,0,0,0,.26-1.44Z"/><path class="cls-3" d="M186.36,301.77v-1.08a3.13,3.13,0,0,1-2.72,1.27,4.27,4.27,0,0,1-2.14-.56,3.93,3.93,0,0,1-1.51-1.57,4.8,4.8,0,0,1-.54-2.31,5.44,5.44,0,0,1,.49-2.32,3.47,3.47,0,0,1,1.46-1.59,4.27,4.27,0,0,1,2.17-.55,3.58,3.58,0,0,1,1.57.32,3.19,3.19,0,0,1,1.11.85V290h1.65v11.76Zm-5.21-4.25a3.35,3.35,0,0,0,.79,2.44,2.56,2.56,0,0,0,3.7,0,3.29,3.29,0,0,0,.75-2.36,3.61,3.61,0,0,0-.77-2.57,2.48,2.48,0,0,0-1.9-.82,2.39,2.39,0,0,0-1.83.79A3.53,3.53,0,0,0,181.15,297.52Z"/><path class="cls-3" d="M197.15,299l1.71.19a3.68,3.68,0,0,1-1.5,2,4.93,4.93,0,0,1-2.78.72,4.83,4.83,0,0,1-3.39-1.15,4.2,4.2,0,0,1-1.25-3.23,4.37,4.37,0,0,1,1.26-3.34,4.62,4.62,0,0,1,3.28-1.18,4.43,4.43,0,0,1,3.19,1.16,4.24,4.24,0,0,1,1.24,3.27c0,.09,0,.21,0,.39h-7.26a3,3,0,0,0,.91,2.14,2.89,2.89,0,0,0,2,.75,2.56,2.56,0,0,0,2.56-1.75Zm-5.42-2.33h5.44a2.62,2.62,0,0,0-.62-1.61,2.69,2.69,0,0,0-2.05-.84,2.82,2.82,0,0,0-1.91.67A2.53,2.53,0,0,0,191.73,296.69Z"/><path class="cls-3" d="M206.54,301.77v-7.4h-1.46v-1.12h1.46v-.91a3.64,3.64,0,0,1,.17-1.27,1.89,1.89,0,0,1,.84-.91,3.28,3.28,0,0,1,1.68-.35,9.78,9.78,0,0,1,1.54.14l-.25,1.26a6.67,6.67,0,0,0-1-.08,1.57,1.57,0,0,0-1.06.28,1.39,1.39,0,0,0-.31,1v.79h1.89v1.12h-1.89v7.4Z"/><path class="cls-3" d="M210.74,297.51a4.11,4.11,0,0,1,1.51-3.51,4.91,4.91,0,0,1,3.06-.94,4.69,4.69,0,0,1,3.28,1.15,4,4,0,0,1,1.27,3.18,5,5,0,0,1-.56,2.58,3.79,3.79,0,0,1-1.64,1.47,5.43,5.43,0,0,1-2.35.52,4.72,4.72,0,0,1-3.31-1.15A4.24,4.24,0,0,1,210.74,297.51Zm1.7,0a3.31,3.31,0,0,0,.82,2.45,2.77,2.77,0,0,0,2.05.81,2.74,2.74,0,0,0,2-.82,3.35,3.35,0,0,0,.82-2.49,3.29,3.29,0,0,0-.82-2.4,3,3,0,0,0-4.09,0A3.3,3.3,0,0,0,212.44,297.51Z"/><path class="cls-3" d="M221.78,301.77v-8.52h1.48v1.29a3.55,3.55,0,0,1,1.05-1.19,2,2,0,0,1,1.06-.29,3.57,3.57,0,0,1,1.7.46l-.57,1.34a2.59,2.59,0,0,0-1.21-.31,1.7,1.7,0,0,0-1,.28,1.62,1.62,0,0,0-.62.79,5.12,5.12,0,0,0-.27,1.69v4.46Z"/><path class="cls-3" d="M233.26,301.77v-8.52h1.48v1.19a3.27,3.27,0,0,1,1.22-1,3.73,3.73,0,0,1,1.73-.38,3.57,3.57,0,0,1,1.77.39,2.18,2.18,0,0,1,1,1.1,3.61,3.61,0,0,1,3-1.49,3.2,3.2,0,0,1,2.22.7,2.77,2.77,0,0,1,.78,2.16v5.85h-1.64V296.4a3.45,3.45,0,0,0-.16-1.25,1.26,1.26,0,0,0-.58-.61,2,2,0,0,0-1-.23,2.56,2.56,0,0,0-1.71.59,2.45,2.45,0,0,0-.67,1.92v4.95h-1.65v-5.54a2.19,2.19,0,0,0-.41-1.44,1.64,1.64,0,0,0-1.32-.48,2.56,2.56,0,0,0-1.28.32,1.84,1.84,0,0,0-.86.94,4.58,4.58,0,0,0-.27,1.78v4.42Z"/><path class="cls-3" d="M255.56,299l1.71.19a3.68,3.68,0,0,1-1.5,2A4.93,4.93,0,0,1,253,302a4.83,4.83,0,0,1-3.39-1.15,4.2,4.2,0,0,1-1.25-3.23,4.37,4.37,0,0,1,1.26-3.34,4.63,4.63,0,0,1,3.29-1.18,4.42,4.42,0,0,1,3.18,1.16,4.24,4.24,0,0,1,1.24,3.27c0,.09,0,.21,0,.39h-7.26A3,3,0,0,0,251,300a2.89,2.89,0,0,0,2,.75,2.56,2.56,0,0,0,2.56-1.75Zm-5.41-2.33h5.43a2.62,2.62,0,0,0-.62-1.61,2.69,2.69,0,0,0-2.05-.84,2.82,2.82,0,0,0-1.91.67A2.48,2.48,0,0,0,250.15,296.69Z"/><path class="cls-3" d="M265.69,300.71a6.26,6.26,0,0,1-1.77,1,5.93,5.93,0,0,1-1.82.28,3.85,3.85,0,0,1-2.46-.69,2.15,2.15,0,0,1-.86-1.75,2.13,2.13,0,0,1,.32-1.14,2.44,2.44,0,0,1,.86-.83,4.3,4.3,0,0,1,1.18-.48q.5-.1,1.47-.21a17.3,17.3,0,0,0,2.94-.5c0-.2,0-.32,0-.38a1.47,1.47,0,0,0-.47-1.24,3,3,0,0,0-1.88-.49,3.2,3.2,0,0,0-1.71.36,2.12,2.12,0,0,0-.82,1.26l-1.62-.19a3.34,3.34,0,0,1,.73-1.47,3.19,3.19,0,0,1,1.45-.85,7.43,7.43,0,0,1,2.21-.3,6.71,6.71,0,0,1,2,.25,2.65,2.65,0,0,1,1.14.65,2.16,2.16,0,0,1,.52,1,7.7,7.7,0,0,1,.08,1.33v1.93a18.13,18.13,0,0,0,.1,2.54,3.16,3.16,0,0,0,.42,1H266A2.81,2.81,0,0,1,265.69,300.71Zm-.14-3.22a13.89,13.89,0,0,1-2.69.55,7.2,7.2,0,0,0-1.44.28,1.46,1.46,0,0,0-.65.47,1.1,1.1,0,0,0-.23.69,1.16,1.16,0,0,0,.5,1,2.33,2.33,0,0,0,1.46.39,3.66,3.66,0,0,0,1.69-.37,2.39,2.39,0,0,0,1.1-1,3.16,3.16,0,0,0,.26-1.44Z"/><path class="cls-3" d="M273.38,300.47l.24,1.28a7.59,7.59,0,0,1-1.25.13,3.23,3.23,0,0,1-1.39-.25,1.5,1.5,0,0,1-.7-.66,4.59,4.59,0,0,1-.2-1.7v-4.9h-1.21v-1.12h1.21v-2.11l1.64-.87v3h1.66v1.12h-1.66v5a2.1,2.1,0,0,0,.09.79.6.6,0,0,0,.28.29,1.22,1.22,0,0,0,.56.1A5.72,5.72,0,0,0,273.38,300.47Z"/></g></g></svg>