<svg xmlns="http://www.w3.org/2000/svg" xmlns:xlink="http://www.w3.org/1999/xlink" viewBox="0 0 340.45 208.44"><defs><style>.cls-1{fill:#ffffff;}.cls-2{fill:url(#linear-gradient);}.cls-3{fill:#ba9d62;}.cls-4{fill:#e0e0e0;}.cls-5{fill:#c0c0c0;}.cls-6{fill:#c19f5d;}.cls-7{fill:#ffffff;}</style><linearGradient id="linear-gradient" x1="149.61" y1="64.48" x2="225.37" y2="108.07" gradientUnits="userSpaceOnUse"><stop offset="0" stop-color="#c09d5c"/><stop offset="0.1" stop-color="#c4a160"/><stop offset="0.54" stop-color="#ceac6b"/><stop offset="1" stop-color="#d1b06f"/></linearGradient></defs><g id="Layer_2" data-name="Layer 2"><g id="Layer_1-2" data-name="Layer 1"><path class="cls-1" d="M238,66H224.87a54.7,54.7,0,0,0-109.25,4.12V102.4l-13,7.38V67.71A67.71,67.71,0,0,1,238,66Z"/><polygon class="cls-2" points="150.02 43.93 150.02 105.2 214.23 142.97 237.42 142.97 237.42 114.22 169.74 75.19 167.43 75.61 167.22 88.83 224.51 122.41 224.51 133.53 163.45 97.86 163.45 31.13 150.02 43.93"/><path class="cls-3" d="M237.92,143.47H214.09l-.11-.07-64.46-37.91V43.71L164,30V97.57L224,132.66v-10L166.72,89.12l.22-13.93,2.89-.52,68.09,39.27Zm-23.55-1h22.55v-28L169.65,75.72l-1.72.31-.2,12.52L225,122.12V134.4L163,98.14V32.29L150.52,44.14v60.78Z"/><path class="cls-4" d="M128.56,95.23V67.85S127.09,32.59,164,26.09V39.31S143,44,141.78,66.17l.42,21.19Z"/><path class="cls-5" d="M162.63,27.78V38.24a34.45,34.45,0,0,0-10.08,5.07,29.32,29.32,0,0,0-12.16,22.78v.11l.41,20.37L130,92.81v-25A44.68,44.68,0,0,1,133.73,50c5.23-11.86,15-19.32,28.9-22.19m1.4-1.69c-36.94,6.5-35.47,41.76-35.47,41.76V95.23l13.64-7.87-.42-21.19C143,44,164,39.31,164,39.31V26.09Z"/><path class="cls-6" d="M176.41,26.09s33.36,2.31,35.67,39.66H198.65s1.26-21.4-22.24-26.44Z"/><path class="cls-4" d="M189.94,86.51,176.41,78.8V43.09h0c7.47,0,13.53,5.57,13.53,12.44Z"/><path class="cls-5" d="M177.81,44.56c6,.63,10.73,5.31,10.73,11V84.1L177.81,78V44.56m-1.4-1.47V78.8l13.53,7.71v-31c0-6.87-6.06-12.44-13.53-12.44Z"/><polygon class="cls-4" points="102.61 115.65 102.61 142.97 126.46 142.97 166.54 119.47 153.12 111.29 116.18 133.74 116.18 122.41 146.29 104.36 146.29 88.62 102.61 115.65"/><path class="cls-5" d="M144.89,91.14v12.43l-29.43,17.64-.68.41v14.61l2.13-1.29,36.2-22,10.71,6.52-37.74,22.12H104V116.43l40.88-25.29m1.4-2.52-43.68,27V143h23.85l40.09-23.5-13.44-8.18-36.93,22.45V122.41l30.11-18V88.62Z"/><path class="cls-7" d="M32.34,192.21l9.37,2.62a18.3,18.3,0,0,1-7.17,10.25q-5,3.36-12.72,3.36-9.54,0-15.68-5.74T0,187q0-10.53,6.17-16.36t16.24-5.83q8.79,0,14.27,4.58a16.14,16.14,0,0,1,4.9,7.77l-9.57,2A8.84,8.84,0,0,0,28.47,174a11.13,11.13,0,0,0-6.55-1.9,11.57,11.57,0,0,0-8.64,3.37Q10,178.82,10,186.36q0,8,3.27,11.4a11.28,11.28,0,0,0,8.49,3.4A10.47,10.47,0,0,0,28.35,199,12.12,12.12,0,0,0,32.34,192.21Z"/><path class="cls-7" d="M48.05,186.88a24.06,24.06,0,0,1,2.19-10.82,20,20,0,0,1,4.46-5.78,18.91,18.91,0,0,1,6.19-3.8,29.47,29.47,0,0,1,10.32-1.67q10.59,0,16.94,5.79t6.35,16.08q0,10.22-6.3,16t-16.86,5.77q-10.68,0-17-5.74T48.05,186.88Zm10-.28q0,7.16,3.76,10.86a13.08,13.08,0,0,0,9.54,3.7,12.94,12.94,0,0,0,9.49-3.67q3.7-3.68,3.71-11T80.9,175.66a13,13,0,0,0-9.59-3.57,13.17,13.17,0,0,0-9.64,3.61Q58,179.32,58,186.6Z"/><path class="cls-7" d="M102.08,207.72V165.53h20.35q7.68,0,11.16,1.14a10.83,10.83,0,0,1,5.57,4,11.12,11.12,0,0,1,2.09,6.65,10.51,10.51,0,0,1-3.17,7.84q-3.17,3.09-9.47,3.9a22.07,22.07,0,0,1,5.17,3.54,47.88,47.88,0,0,1,5.51,6.85l5.85,8.23H133.57l-7-9.18a60.66,60.66,0,0,0-5.09-6.2,7.59,7.59,0,0,0-2.91-1.76,17.94,17.94,0,0,0-4.87-.47h-2v17.61Zm9.67-24.35h7.16c4.63,0,7.53-.17,8.68-.52a5.21,5.21,0,0,0,2.72-1.78,5,5,0,0,0,1-3.17,4.66,4.66,0,0,0-1.29-3.43,6.22,6.22,0,0,0-3.65-1.66q-1.17-.13-7-.14h-7.55Z"/><path class="cls-7" d="M161.37,207.72l-17.12-42.19h10.49l12.12,31.22,11.73-31.22h10.25l-17.15,42.19Z"/><path class="cls-7" d="M232,207.72H221.48l-4.18-9.59H198.15l-4,9.59H183.94l18.66-42.19h10.22ZM214.19,191l-6.6-15.66L201.13,191Z"/><path class="cls-7" d="M236.83,207.72V165.53h9.67v42.19Z"/><path class="cls-7" d="M255.81,207.72V165.53h9.41l19.6,28.17V165.53h9v42.19h-9.7l-19.31-27.51v27.51Z"/><path class="cls-7" d="M304,207.72V165.53h35.51v7.14H313.69V182h24.05v7.11H313.69v11.48h26.76v7.11Z"/></g></g></svg>
